<?xml version="1.0" encoding="UTF-8"?>
<svg width="24px" height="24px" viewBox="0 0 24 24" version="1.1" xmlns="http://www.w3.org/2000/svg" xmlns:xlink="http://www.w3.org/1999/xlink">
    <title>team</title>
    <defs>
        <polygon id="path-1" points="5.47826087 2.34782609 3.13043478 2.34782609 3.13043478 0 2.34782609 0 2.34782609 2.34782609 0 2.34782609 0 3.13043478 2.34782609 3.13043478 2.34782609 5.47826087 3.13043478 5.47826087 3.13043478 3.13043478 5.47826087 3.13043478"></polygon>
    </defs>
    <g id="team" stroke="none" stroke-width="1" fill="none" fill-rule="evenodd">
        <g id="Group-8" transform="translate(1.000000, 2.000000)" fill-rule="nonzero">
            <g id="iconfinder_office-14_4107625" fill="#173D6E">
                <path d="M16.1954435,16.6782 C15.7843304,15.1756957 14.4063652,14.1258174 12.8456087,14.1258174 L7.24268696,14.1258174 C5.68326957,14.126487 4.30664348,15.1743565 3.8941913,16.6755217 C3.79643478,17.0317304 2.50551304,16.6775304 2.6026,16.3213217 C3.1744087,14.2416522 5.082,12.7880261 7.24201739,12.7873565 L12.8456087,12.7873565 C15.0076348,12.7873565 16.9165652,14.2423217 17.4870348,16.3253391 C17.5841217,16.6815478 16.2764609,16.9761565 16.1954435,16.6782 Z" id="Path"></path>
                <path d="M10.0434783,20.0869565 C4.50550435,20.0869565 0,15.5814522 0,10.0434783 C0,4.50550435 4.50550435,0 10.0434783,0 C15.5814522,0 20.0869565,4.50550435 20.0869565,10.0434783 C20.0869565,15.5814522 15.5814522,20.0869565 10.0434783,20.0869565 Z M10.0434783,1.33913043 C5.24403478,1.33913043 1.33913043,5.24403478 1.33913043,10.0434783 C1.33913043,14.8429217 5.24403478,18.7478261 10.0434783,18.7478261 C14.8435913,18.7478261 18.7478261,14.8429217 18.7478261,10.0434783 C18.7478261,5.24403478 14.8435913,1.33913043 10.0434783,1.33913043 Z" id="Shape"></path>
                <path d="M10.0434783,12.0053043 C8.03344348,12.0053043 6.39769565,10.2396609 6.39769565,8.0696 C6.39769565,5.89953913 8.03344348,4.13389565 10.0434783,4.13389565 C12.0541826,4.13389565 13.6892609,5.89953913 13.6892609,8.0696 C13.6892609,10.2396609 12.0541826,12.0053043 10.0434783,12.0053043 Z M10.0434783,5.47302609 C8.77197391,5.47302609 7.73682609,6.6374 7.73682609,8.0696 C7.73682609,9.5018 8.77197391,10.6661739 10.0434783,10.6661739 C11.3156522,10.6661739 12.3501304,9.5018 12.3501304,8.0696 C12.3501304,6.6374 11.3156522,5.47302609 10.0434783,5.47302609 Z" id="Shape"></path>
            </g>
            <g id="Path" transform="translate(15.521739, 1.826087)">
                <path stroke="#FFFFFF" stroke-width="1.82608696" d="M4.04347826,-0.913043478 L4.04347826,1.43478261 L6.39130435,1.43478261 L6.39130435,4.04347826 L4.04347826,4.04347826 L4.04347826,6.39130435 L1.43478261,6.39130435 L1.43478261,4.04347826 L-0.913043478,4.04347826 L-0.913043478,1.43478261 L1.43478261,1.43478261 L1.43478261,-0.913043478 L4.04347826,-0.913043478 Z" fill="#173D6E" fill-rule="evenodd"></path>
                <path stroke="#173D6E" stroke-width="0.5" d="M3.38043478,-0.25 L3.38043478,2.09782609 L5.72826087,2.09782609 L5.72826087,3.38043478 L3.38043478,3.38043478 L3.38043478,5.72826087 L2.09782609,5.72826087 L2.09782609,3.38043478 L-0.25,3.38043478 L-0.25,2.09782609 L2.09782609,2.09782609 L2.09782609,-0.25 L3.38043478,-0.25 Z"></path>
            </g>
        </g>
    </g>
</svg>