<?xml version="1.0" encoding="UTF-8"?>
<svg width="24px" height="24px" viewBox="0 0 24 24" version="1.1" xmlns="http://www.w3.org/2000/svg" xmlns:xlink="http://www.w3.org/1999/xlink">
    <title>id</title>
    <g id="id" stroke="none" stroke-width="1" fill="none" fill-rule="evenodd" stroke-linecap="round" stroke-linejoin="round">
        <g id="iconfinder_id-identity-business-card-employee_5038490" transform="translate(5.000000, 3.000000)" stroke="#163C6D" stroke-width="0.9">
            <path d="M4.5,2.25 L2.25,2.25 C1.25588745,2.25 0.45,3.05588745 0.45,4.05 L0.45,15.75 C0.45,16.7441125 1.25588745,17.55 2.25,17.55 L12.15,17.55 C13.1441125,17.55 13.95,16.7441125 13.95,15.75 L13.95,4.05 C13.95,3.05588745 13.1441125,2.25 12.15,2.25 L9.9,2.25" id="Path"></path>
            <path d="M8.55,3.2724 L8.55,0.3276 C8.55,-0.1089 5.85,-0.1089 5.85,0.3276 L5.85,3.2724 C5.85,3.7089 8.55,3.7089 8.55,3.2724 Z" id="Path"></path>
            <path d="M3.9672,13.8303 C3.99283894,13.418337 4.10054808,13.0156517 4.284,12.6459 C4.44871612,12.298635 4.75073763,12.0357523 5.1174,11.9205 C5.52355528,11.7996226 5.93940521,11.7141039 6.3603,11.6649 C5.48706148,11.265932 5.00988036,10.3123522 5.21403345,9.37424641 C5.41818654,8.43614062 6.248487,7.76709843 7.20855,7.76709843 C8.168613,7.76709843 8.99891346,8.43614062 9.20306655,9.37424641 C9.40721964,10.3123522 8.93003852,11.265932 8.0568,11.6649 C8.47242476,11.7147317 8.883089,11.7996344 9.2844,11.9187 C9.65027658,12.0345802 9.95151263,12.2973468 10.116,12.6441 C10.2995431,13.0138172 10.4072572,13.4165213 10.4328,13.8285" id="Path"></path>
        </g>
    </g>
</svg>