<?xml version="1.0" encoding="UTF-8"?>
<svg width="80px" height="80px" viewBox="0 0 80 80" version="1.1" xmlns="http://www.w3.org/2000/svg" xmlns:xlink="http://www.w3.org/1999/xlink">
    <title>Field Completion</title>
    <g id="Field-Completion" stroke="none" stroke-width="1" fill="none" fill-rule="evenodd">
        <g id="iconfinder_like__Ok__done__complete__thumbsup_5590776" transform="translate(11.000000, 12.000000)" fill-rule="nonzero">
            <path d="M52.8453126,50.2759766 L57.669336,26.5400146 C58.0893067,24.4879882 57.5613037,22.3759766 56.2413331,20.7560059 C54.9092774,19.135962 52.9533447,18.2 50.8533447,18.2 L39.2372803,18.2 L41.1453126,8.82800288 C41.577295,6.65600576 41.0253418,4.4239502 39.6333008,2.7199706 C38.2293213,1.00397936 36.1533447,0.0199706 33.9333008,0.0199706 L32.0013183,0.0199706 C30.5013183,0.0199706 29.2772949,1.23198236 29.2772949,2.7199706 C29.2772949,5.94797348 28.0652832,14.3959472 17.0013183,22.879956 L16.5333008,23.2400145 L16.5333008,51.1039794 L19.3413331,53.2280028 C20.9613038,54.451953 22.977295,55.1239501 25.0052979,55.1239501 L46.9052979,55.1239501 C49.7733154,55.1239501 52.269336,53.0840088 52.8453126,50.2759766 Z" id="Path" fill="#CAA978"></path>
            <path d="M2.04929204,55.5799561 L12.2853272,55.5799561 C13.3052979,55.5799561 14.1333008,54.7519532 14.1333008,53.7319825 L14.1333008,22.735962 C14.1333008,21.7039795 13.3052979,20.8759766 12.2853272,20.8759766 L2.04929204,20.8759766 C1.01730956,20.8759766 0.18930668,21.7039795 0.18930668,22.735962 L0.18930668,53.7319825 C0.18930668,54.7519531 1.01730956,55.5799561 2.04929204,55.5799561 Z M7.77331544,44.8639648 C9.36933596,44.8639648 10.6652832,46.1599854 10.6652832,47.7680175 C10.6652832,49.3879882 9.36933584,50.6840088 7.77331544,50.6840088 C6.16528316,50.6840088 4.8573242,49.3879882 4.8573242,47.7680175 C4.8573242,46.1599854 6.16528316,44.8639648 7.77331544,44.8639648 Z" id="Shape" fill="#173D6E"></path>
        </g>
    </g>
</svg>