<?xml version="1.0" encoding="UTF-8"?>
<svg width="24px" height="24px" viewBox="0 0 24 24" version="1.1" xmlns="http://www.w3.org/2000/svg" xmlns:xlink="http://www.w3.org/1999/xlink">
    <title>notification</title>
    <g id="notification" stroke="none" stroke-width="1" fill="none" fill-rule="evenodd">
        <g id="iconfinder_bell_4092563" transform="translate(3.000000, 3.000000)" fill="#FFFFFF" fill-rule="nonzero">
            <path d="M17.2236,13.8694 L14.9606,11.0918 L14.88,6.2 C14.8826496,6.16698641 14.8826496,6.13381359 14.88,6.1008 C14.167,2.2196 11.9102,0 8.68,0 C5.27,0 2.5296,2.48 1.86,6.0884 C1.85664519,6.12552436 1.85664519,6.16287564 1.86,6.2 L1.7794,11.16 L0.0868,13.9376 C-0.0239523329,14.1294287 -0.0239523329,14.3657713 0.0868,14.5576 C0.193701775,14.7530579 0.397251637,14.8761345 0.62,14.88 L6.2,14.88 C6.2,16.2496662 7.31033382,17.36 8.68,17.36 C10.0496662,17.36 11.16,16.2496662 11.16,14.88 L16.74,14.88 C16.9784889,14.8793249 17.1954503,14.7419159 17.298,14.5266 C17.4018743,14.3114926 17.3729328,14.0558424 17.2236,13.8694 Z M8.68,16.12 C7.99516691,16.12 7.44,15.5648331 7.44,14.88 L9.92,14.88 C9.92,15.5648331 9.36483309,16.12 8.68,16.12 Z M1.7174,13.64 L2.9574,11.6312 C3.01312348,11.5373117 3.04306618,11.4303734 3.0442,11.3212 L3.1,6.262 C3.6642,3.255 5.9024,1.24 8.68,1.24 C12.1706,1.24 13.2866,4.34 13.64,6.262 L13.7268,11.3212 C13.7276112,11.4610498 13.7756804,11.5965177 13.8632,11.7056 L15.438,13.64 L1.7174,13.64 Z" id="Shape"></path>
        </g>
    </g>
</svg>