<?xml version="1.0" encoding="UTF-8"?>
<svg width="24px" height="24px" viewBox="0 0 24 24" version="1.1" xmlns="http://www.w3.org/2000/svg" xmlns:xlink="http://www.w3.org/1999/xlink">
    <title>attachment</title>
    <g id="attachment" stroke="none" stroke-width="1" fill="none" fill-rule="evenodd">
        <g id="iconfinder_clip_1814096" transform="translate(2.000000, 3.000000)" fill="#B2B2B2" fill-rule="nonzero">
            <path d="M3.88,18 C2.92,18 2.04,17.64 1.36,16.96 C0.68,16.28 0.32,15.4 0.32,14.44 C0.32,13.48 0.68,12.6 1.36,11.92 L11.52,1.76 C13.36,-0.08 16.4,-0.08 18.24,1.76 C19.12,2.64 19.64,3.84 19.64,5.12 C19.64,6.4 19.16,7.56 18.24,8.48 L10.64,16.08 L9.84,15.28 L17.44,7.68 C18.84,6.28 18.84,3.96 17.44,2.56 C16.04,1.16 13.72,1.16 12.32,2.56 L2.16,12.72 C1.68,13.16 1.44,13.8 1.44,14.44 C1.44,15.08 1.68,15.72 2.16,16.16 C3.12,17.12 4.64,17.12 5.6,16.16 L13.2,8.56 C13.68,8.08 13.68,7.28 13.2,6.8 C12.72,6.32 11.92,6.32 11.44,6.8 L6.36,11.88 L5.56,11.08 L10.64,6 C11.56,5.08 13.04,5.08 13.96,6 C14.88,6.92 14.88,8.4 13.96,9.32 L6.36,16.92 C5.72,17.64 4.84,18 3.88,18" id="Fill-60"></path>
        </g>
    </g>
</svg>