<?xml version="1.0" encoding="UTF-8"?>
<svg width="80px" height="80px" viewBox="0 0 80 80" version="1.1" xmlns="http://www.w3.org/2000/svg" xmlns:xlink="http://www.w3.org/1999/xlink">
    <title>Unassigned</title>
    <g id="Unassigned" stroke="none" stroke-width="1" fill="none" fill-rule="evenodd">
        <g id="Group-12" transform="translate(7.000000, 7.000000)" fill-rule="nonzero">
            <path d="M27.121217,21.1185549 C26.241153,20.2391328 25.7775232,19.0263668 25.8464978,17.7841356 L26.1179528,12.9105383 C26.1851406,11.6991948 25.7332578,10.5165648 24.8754164,9.65867486 L20.7126395,5.49589793 C19.8594033,4.64327052 18.6850224,4.19182022 17.4803656,4.25336149 L13.3399767,4.46464866 C12.9409679,4.48537366 12.5915335,4.73899723 12.4481654,5.11193576 C12.3047974,5.48487429 12.3943551,5.90725882 12.6767309,6.1899273 L15.6753296,9.18572743 C17.4829167,10.9938033 17.4829167,13.9247552 15.6753296,15.732831 L15.6753296,15.732831 C13.8672537,17.5404181 10.9363018,17.5404181 9.12822594,15.732831 L6.1296273,12.7370309 C5.84695882,12.4546551 5.42457429,12.3650974 5.05163576,12.5084654 C4.67869723,12.6518335 4.42507366,13.0012679 4.40434866,13.4002767 L4.19306149,17.5406656 C4.13152022,18.7453224 4.58297052,19.9197033 5.43559793,20.7729395 L9.59837486,24.9357164 C10.4562648,25.7935578 11.6388948,26.2454406 12.8502383,26.1782528 L17.7238356,25.9067978 C18.9660668,25.8378232 20.1788328,26.301453 21.0582549,27.181517 L30.3017185,36.4235815 L39.5367867,45.6670451 C40.4168507,46.5464672 40.8804805,47.7592332 40.8115059,49.0014644 L40.5400509,53.8750617 C40.4728631,55.0864052 40.9247459,56.2690352 41.7825874,57.1269251 L45.9453643,61.2897021 C46.7986004,62.1423295 47.9729813,62.5937798 49.1776381,62.5322385 L53.318027,62.3209513 C53.7170358,62.3002263 54.0664702,62.0466028 54.2098383,61.6736642 C54.3532064,61.3007257 54.2636486,60.8783412 53.9812728,60.5956727 L50.9896704,57.5998726 C49.1820833,55.7917967 49.1820833,52.8608448 50.9896704,51.052769 L50.9896704,51.052769 C52.7977463,49.2451819 55.7286982,49.2451819 57.5367741,51.052769 L60.5353727,54.0513676 C60.8180412,54.3337434 61.2404257,54.4233012 61.6133642,54.2799331 C61.9863028,54.136565 62.2399263,53.7871306 62.2606513,53.3881218 L62.4719385,49.2477329 C62.5334798,48.0430761 62.0820295,46.8686952 61.2294021,46.0154591 L57.0666251,41.8526821 C56.2087352,40.9948407 55.0261052,40.5429579 53.8147617,40.6101457 L48.9411644,40.8816007 C47.6989332,40.9505753 46.4861672,40.4869455 45.6067451,39.6068815 L36.3632815,30.3718133 L27.121217,21.1185549 Z" id="Path" fill="#173D6E"></path>
            <path d="M20.6676144,45.3867131 C24.7856223,49.505745 30.6928897,51.2875163 36.4011243,50.1323112 C37.1166689,49.9879403 37.6444459,49.3784498 37.6851476,48.6494878 L37.6851476,48.6494878 C37.7096894,48.1979163 37.541307,47.7571716 37.2219418,47.4370368 L35.5085028,45.7232703 C34.9705301,45.1937591 34.2348338,44.9147543 33.4810975,44.9543989 C30.1556075,45.101459 26.9213084,43.8444956 24.5675347,41.4902722 C22.2137609,39.1360487 20.9570377,35.9011316 21.1040697,32.5750063 C21.1437067,31.8211259 20.8647552,31.085289 20.3353451,30.5472136 L18.6219061,28.8334471 C18.3018325,28.514021 17.8611719,28.3456063 17.4096867,28.3701528 L17.4096867,28.3701528 C16.680532,28.4085335 16.0693568,28.9347309 15.9229228,29.650197 C14.7679384,35.3595222 16.5493693,41.2679183 20.6676144,45.3867131 L20.6676144,45.3867131 Z" id="Path" fill="#CAA978"></path>
            <path d="M18.9449822,47.0977837 C14.2803431,42.4286846 12.2239252,35.7564034 13.4508661,29.2715009 C13.4835571,29.0935815 13.4328918,28.9104939 13.3133857,28.7746915 C13.1938796,28.6388891 13.0187195,28.565357 12.8380876,28.5751617 L12.8380876,28.5751617 C11.3783929,28.6522121 9.93101953,28.2719906 8.69765488,27.4874799 C8.07647477,27.0958392 7.33266544,26.9470773 6.60863736,27.0696764 L1.58106852,27.9192102 C0.765411439,28.0570811 0.168154895,28.7631973 0.1675,29.5904242 L0.1675,36.3644117 C0.168154895,37.1916387 0.765411439,37.8977548 1.58106852,38.0356257 L8.98036858,39.2890362 C9.55399056,41.4870648 10.427014,43.5958172 11.5749283,45.5560888 L7.2297719,51.6699467 C6.74996932,52.3444643 6.82707458,53.2667844 7.41221277,53.8522737 L9.80761952,56.2476805 L12.2030263,58.6430872 C12.7885156,59.2282254 13.7108357,59.3053307 14.3853533,58.8255281 L20.4992112,54.4803717 C22.4594828,55.628286 24.5682352,56.5013094 26.7662638,57.0749314 L28.0196743,64.4742315 C28.1575452,65.2898886 28.8636613,65.8871451 29.6908883,65.8878 L36.4648758,65.8878 C37.2921027,65.8871451 37.9982189,65.2898886 38.1360898,64.4742315 L38.9856236,59.4466626 C39.1082227,58.7226346 38.9594608,57.9788252 38.5678201,57.3576451 C37.7846264,56.1219042 37.4068078,54.6724637 37.4871017,53.2116417 L37.4871017,53.2116417 C37.4969064,53.0310098 37.4233743,52.8558496 37.2875719,52.7363435 C37.1517695,52.6168374 36.9686819,52.5661722 36.7907625,52.5988632 C30.2983867,53.8308292 23.6169728,51.7712393 18.9449822,47.0977837 Z" id="Path" fill="#CAA978"></path>
            <path d="M45.3273856,20.7288869 C41.2093777,16.609855 35.3021103,14.8280837 29.5938757,15.9832888 C28.8783311,16.1276597 28.3505541,16.7371502 28.3098524,17.4661122 L28.3098524,17.4661122 C28.2853106,17.9176837 28.453693,18.3584284 28.7730582,18.6785632 L30.4864972,20.3923297 C31.0244699,20.9218409 31.7601662,21.2008457 32.5139025,21.1612011 C35.8393925,21.014141 39.0736916,22.2711044 41.4274653,24.6253278 C43.7812391,26.9795513 45.0379623,30.2144684 44.8909303,33.5405937 C44.8512933,34.2944741 45.1302448,35.030311 45.6596549,35.5683864 L47.3730939,37.2821529 C47.6931675,37.601579 48.1338281,37.7699937 48.5853133,37.7454472 L48.5853133,37.7454472 C49.314468,37.7070665 49.9256432,37.1808691 50.0720772,36.465403 C51.2270616,30.7560778 49.4456307,24.8476817 45.3273856,20.7288869 L45.3273856,20.7288869 Z" id="Path" fill="#CAA978"></path>
            <path d="M51.6191256,7.2900719 L45.5039527,11.6352283 C43.5432595,10.487314 41.4340536,9.61429056 39.2355523,9.04066858 L37.9818722,1.64136852 C37.8439716,0.825711439 37.1377036,0.228454895 36.3102987,0.2278 L29.5306754,0.2278 C28.7032705,0.228454895 27.9970025,0.825711439 27.8591019,1.64136852 L27.0093854,6.66893736 C26.8867599,7.39296544 27.0355538,8.13677477 27.4272788,8.75795488 C28.2106409,9.99369578 28.5885408,11.4431363 28.5082296,12.9039583 L28.5082296,12.9039583 C28.4984228,13.0845902 28.5719707,13.2597504 28.7078023,13.3792565 C28.8436339,13.4987626 29.0267609,13.5494278 29.2047186,13.5167368 C35.6952289,12.2823254 42.3761438,14.339188 47.0477894,19.0101079 C51.7194351,23.6810278 53.7763412,30.3606288 52.541277,36.8496698 C52.508579,37.0275892 52.5592551,37.2106769 52.6787869,37.3464792 C52.7983187,37.4822816 52.9735166,37.5558137 53.1541872,37.546009 L53.1541872,37.546009 C54.6136004,37.4673022 56.0612386,37.8455642 57.2955105,38.6281201 C57.9168242,39.0197608 58.6607935,39.1685227 59.3849773,39.0459236 L64.4136275,38.1963898 C65.22946,38.0585189 65.826845,37.3524027 65.8275,36.5251758 L65.8275,29.7553663 C65.826845,28.9281394 65.22946,28.2220233 64.4136275,28.0841523 L57.012736,26.8307418 C56.4389906,24.6327132 55.5657794,22.5239608 54.4176182,20.5636892 L58.7637092,14.4498313 C59.2436149,13.7753137 59.1664931,12.8529936 58.5812291,12.2675043 L56.1853071,9.87209756 L53.7893852,7.4766908 C53.206682,6.89711517 52.2922563,6.81848444 51.6191256,7.2900719 Z" id="Path" fill="#CAA978"></path>
        </g>
    </g>
</svg>