<?xml version="1.0" encoding="UTF-8"?>
<svg width="24px" height="24px" viewBox="0 0 24 24" version="1.1" xmlns="http://www.w3.org/2000/svg" xmlns:xlink="http://www.w3.org/1999/xlink">
    <title>password</title>
    <g id="password" stroke="none" stroke-width="1" fill="none" fill-rule="evenodd">
        <g id="iconfinder_Fin_copy-16_1521393" transform="translate(6.000000, 4.000000)" fill="#163C6D" fill-rule="nonzero">
            <path d="M10.752,6.272 L10.08,6.272 L10.08,3.808 C10.08,2.7552 9.3184,0 5.824,0 C2.3296,0 1.568,2.7552 1.568,3.808 L1.568,6.272 L0.896,6.272 C0.4032,6.272 0,6.6752 0,7.168 L0,14.336 C0,14.8288 0.4032,15.232 0.896,15.232 L10.752,15.232 C11.2448,15.232 11.648,14.8288 11.648,14.336 L11.648,7.168 C11.648,6.6752 11.2448,6.272 10.752,6.272 Z M2.464,3.808 C2.464,3.808 2.464,0.896 5.824,0.896 C9.184,0.896 9.184,3.808 9.184,3.808 L9.184,6.272 L2.464,6.272 L2.464,3.808 Z M10.752,14.336 L0.896,14.336 L0.896,7.168 L10.752,7.168 L10.752,14.336 Z" id="Shape"></path>
        </g>
    </g>
</svg>