<?xml version="1.0" encoding="UTF-8"?>
<svg width="80px" height="80px" viewBox="0 0 80 80" version="1.1" xmlns="http://www.w3.org/2000/svg" xmlns:xlink="http://www.w3.org/1999/xlink">
    <title>Workorders</title>
    <g id="Workorders" stroke="none" stroke-width="1" fill="none" fill-rule="evenodd">
        <g id="iconfinder_clipboard_472375" transform="translate(16.000000, 8.000000)" fill-rule="nonzero">
            <path d="M41.999,8 L41.999,12 C41.999,15.308 39.307,18 35.999,18 L11.999,18 C8.691,18 5.999,15.308 5.999,12 L5.999,8 L-0.001,8 L-0.001,60 L-0.001,64 L48.001,64 L48.001,60 L48.001,8 L41.999,8 Z M37.999,54.052 L9.999,54.052 L9.999,50 L37.999,50 L37.999,54.052 Z M37.999,42.052 L9.999,42.052 L9.999,38 L37.999,38 L37.999,42.052 Z M37.999,30 L9.999,30 L9.999,25.948 L37.999,25.948 L37.999,30 Z" id="Shape" fill="#CAA978"></path>
            <path d="M11.999,14 L35.999,14 C37.103,14 37.999,13.104 37.999,12 L37.999,6 L29.999,6 C29.999,2.686 27.313,0 23.999,0 C20.685,0 17.999,2.686 17.999,6 L9.999,6 L9.999,12 C9.999,13.104 10.895,14 11.999,14 Z M23.999,4 C25.103,4 25.999,4.896 25.999,6 C25.999,7.104 25.103,8 23.999,8 C22.895,8 21.999,7.104 21.999,6 C21.999,4.896 22.895,4 23.999,4 Z" id="Shape" fill="#173D6E"></path>
        </g>
    </g>
</svg>