<?xml version="1.0" encoding="UTF-8"?>
<svg width="24px" height="24px" viewBox="0 0 24 24" version="1.1" xmlns="http://www.w3.org/2000/svg" xmlns:xlink="http://www.w3.org/1999/xlink">
    <title>search</title>
    <g id="search" stroke="none" stroke-width="1" fill="none" fill-rule="evenodd">
        <g id="iconfinder_search-70px_510861" transform="translate(5.000000, 5.000000)" fill="#FFFFFF" fill-rule="nonzero">
            <path d="M13.81,12.6584201 L10.2620101,9.11043021 C10.9746214,8.1587887 11.401781,6.98114761 11.401781,5.70089049 C11.401781,2.55237011 8.84941086,0 5.70089049,0 C2.55237011,0 0,2.55237011 0,5.70089049 C0,8.84941086 2.55237011,11.401781 5.70089049,11.401781 C6.98114761,11.401781 8.1587887,10.9746214 9.11043021,10.2620101 L12.6584201,13.81 L13.81,12.6584201 Z M1.62882585,5.70089049 C1.62882585,3.45555405 3.45555405,1.62882585 5.70089049,1.62882585 C7.94622693,1.62882585 9.77295512,3.45555405 9.77295512,5.70089049 C9.77295512,7.94622693 7.94622693,9.77295512 5.70089049,9.77295512 C3.45555405,9.77295512 1.62882585,7.94622693 1.62882585,5.70089049 Z" id="Shape"></path>
        </g>
    </g>
</svg>