<?xml version="1.0" encoding="UTF-8"?>
<svg width="24px" height="24px" viewBox="0 0 24 24" version="1.1" xmlns="http://www.w3.org/2000/svg" xmlns:xlink="http://www.w3.org/1999/xlink">
    <title>remove</title>
    <g id="remove" stroke="none" stroke-width="1" fill="none" fill-rule="evenodd">
        <g id="iconfinder_plus_1814113" fill="#173D6E" fill-rule="nonzero">
            <path d="M12,24 C5.37238494,24 0,18.6276151 0,12 C0,5.37238494 5.37238494,0 12,0 C18.6276151,0 24,5.37238494 24,12 C24,18.6276151 18.6276151,24 12,24 L12,24 Z M12,1.30543933 C6.12552301,1.30543933 1.30543933,6.12552301 1.30543933,12 C1.30543933,17.874477 6.12552301,22.6945607 12,22.6945607 C17.874477,22.6945607 22.6945607,17.874477 22.6945607,12 C22.6945607,6.12552301 17.874477,1.30543933 12,1.30543933 L12,1.30543933 Z" id="Fill-38"></path>
            <polygon id="Fill-39" points="5.55754545 11.1150909 18.0497273 11.1150909 18.0497273 12.4921818 5.55754545 12.4921818"></polygon>
        </g>
    </g>
</svg>