<?xml version="1.0" encoding="UTF-8"?>
<svg width="24px" height="24px" viewBox="0 0 24 24" version="1.1" xmlns="http://www.w3.org/2000/svg" xmlns:xlink="http://www.w3.org/1999/xlink">
    <title>setting</title>
    <g id="setting" stroke="none" stroke-width="1" fill="none" fill-rule="evenodd">
        <g id="iconfinder_setting_settings_tools_preferences_2744142" transform="translate(1.000000, 3.000000)" stroke="#173D6E" stroke-width="0.916666667">
            <path d="M7.4722615,10.00109 C6.464689,9.043815 5.2293175,9.238515 4.8541955,9.243707 L4.818825,9.243707 C3.5951355,9.2868655 2.357817,8.8410025 1.4229325,7.9077405 C0.08437,6.569178 -0.2521365,4.6082245 0.4176315,2.9571685 L2.8202295,5.359442 C3.508494,6.0477065 4.6341845,6.0477065 5.322449,5.359442 L5.3402965,5.3415945 C6.02921,4.6530055 6.02921,3.5269905 5.3409455,2.838726 L2.9383475,0.436128 C4.5894035,-0.232991 6.550357,0.10384 7.8889195,1.4424025 C8.822506,2.375989 9.2680445,3.614281 9.224886,4.837646 L9.224886,4.8730165 C9.219045,5.2487875 9.0181795,6.4903245 9.97513,7.498546" id="Path" stroke-linejoin="round"></path>
            <path d="M12.444575,14.9636685 L14.442846,16.9619395 C15.283301,17.8030435 16.365833,18.0574515 17.206937,17.2163475 C18.047392,16.3752435 17.7861695,15.299526 16.9457145,14.459071 L14.8851395,12.398496" id="Path" stroke-linejoin="round"></path>
            <polyline id="Path" points="14.984112 6.253764 17.5434435 3.693459 17.4162395 2.5405105 20.394176 0.726231 21.658428 1.990483 19.845122 4.9690685 18.691849 4.8412155 15.280056 8.2536575"></polyline>
            <line x1="13.1828125" y1="9.2031445" x2="6.9660415" y2="15.419591" id="Path" stroke-linecap="round" stroke-linejoin="round"></line>
            <path d="M8.024885,17.3195385 C7.45701,17.8874135 6.527642,17.8874135 5.9594425,17.3195385 L5.066094,16.4258655 C4.4978945,15.8579905 4.4978945,14.928947 5.066094,14.361072 L12.1236445,7.303197 C12.6915195,6.735322 13.620563,6.735322 14.188438,7.303197 L15.082111,8.1965455 C15.649986,8.7644205 15.649986,9.6937885 15.082111,10.2616635 L8.024885,17.3195385 Z" id="Path" stroke-linejoin="round"></path>
        </g>
    </g>
</svg>