<?xml version="1.0" encoding="UTF-8"?>
<svg width="80px" height="80px" viewBox="0 0 80 80" version="1.1" xmlns="http://www.w3.org/2000/svg" xmlns:xlink="http://www.w3.org/1999/xlink">
    <title>Technicians</title>
    <g id="Technicians" stroke="none" stroke-width="1" fill="none" fill-rule="evenodd">
        <g id="iconfinder_user-01_1157668" transform="translate(12.000000, 7.000000)" fill-rule="nonzero">
            <path d="M39.62367,37.27672 C39.55067,40.62742 34.58521,43.33061 28.47,43.33061 C22.35333,43.33061 17.3886,40.62742 17.31633,37.27672 C7.95919,38.13228 0.62999,45.9973 0.62999,55.57563 C0.62999,65.72555 8.85855,65.7000006 19.00701,65.7000006 L37.93299,65.7000006 C48.08145,65.7000006 56.31001,65.72555 56.31001,55.57563 C56.31001,45.9973 48.98227,38.13228 39.62367,37.27672 Z" id="Path" fill="#173D6E"></path>
            <path d="M28.47,36.69929 C22.26208,36.69929 17.13237,29.96942 16.3082,21.23351 L14.62044,21.23351 C15.55849,31.18341 21.39922,38.84987 28.47,38.84987 C35.53932,38.84987 41.38224,31.18341 42.31956,21.23424 L40.63107,21.23424 C39.80617,29.97015 34.67792,36.69929 28.47,36.69929 Z" id="Path" fill="#CAA978"></path>
            <path d="M13.96125,19.16396 L42.97802,19.16396 C44.10952,19.16396 45.02494,18.24781 45.02494,17.11777 C45.02494,15.987 44.10952,15.07085 42.97802,15.07085 L42.42103,15.07085 C42.42103,9.63381 39.30685,4.92677 34.76917,2.62435 L33.61285,9.17902 C33.5216,9.69805 33.07119,10.06305 32.56092,10.06305 C32.4996,10.06305 32.43682,10.05794 32.37404,10.04772 C31.79223,9.94479 31.4046,9.39072 31.5068,8.80891 L32.82737,1.31984 C32.3317,0.52779 31.45278,0 30.44903,0 L26.48951,0 C25.48722,0 24.60903,0.52779 24.11263,1.31984 L25.4332,8.80891 C25.53613,9.39072 25.14777,9.94552 24.56596,10.04772 C24.50318,10.05867 24.4404,10.06305 24.37908,10.06305 C23.86881,10.06305 23.41694,9.69878 23.32715,9.17902 L22.17083,2.62508 C17.63096,4.92604 14.51897,9.63381 14.51897,15.07085 L13.96125,15.07085 C12.83048,15.07085 11.91506,15.987 11.91506,17.11777 C11.91506,18.24781 12.83048,19.16396 13.96125,19.16396 Z" id="Path" fill="#CAA978"></path>
        </g>
    </g>
</svg>